<svg width="0"
  height="0"
  class="hidden">
  <symbol xmlns="http://www.w3.org/2000/svg"
    viewBox="0 0 16 18"
    id="bell">
    <path d="M13.7145 11.3835V7.96353C13.7145 5.42321 12.1146 3.20807 9.91176 2.38066C9.93748 2.25 9.95174 2.11648 9.95174 1.98291C9.95179 0.888403 9.07752 0 8.00043 0C6.92333 0 6.04906 0.888403 6.04906 1.98291C6.04906 2.11357 6.06333 2.24418 6.08618 2.36903C5.32909 2.64194 4.62911 3.0745 4.032 3.66095C2.90634 4.76418 2.28637 6.24772 2.28637 7.83869V11.3835C2.28637 11.5084 2.18637 11.6129 2.06065 11.6129C1.00641 11.6129 0.10642 12.42 0.00927858 13.4477C-0.0450174 14.0197 0.140724 14.5887 0.520701 15.0126C0.897815 15.4335 1.43782 15.6774 2.00062 15.6774H5.44623C5.58907 16.981 6.68048 18 8.00043 18C9.32037 18 10.4118 16.981 10.5546 15.6774H14.0002C14.5631 15.6774 15.103 15.4335 15.4802 15.0126C15.8573 14.5887 16.043 14.0197 15.9916 13.4477C15.8944 12.42 14.9916 11.6129 13.9402 11.6129C13.8145 11.6128 13.7145 11.5112 13.7145 11.3835ZM8.00043 1.16127C8.4461 1.16127 8.80895 1.52998 8.80895 1.98286C8.80895 2.02058 8.80322 2.05544 8.7975 2.09316C8.60322 2.06412 8.40607 2.0438 8.20893 2.03798C7.86893 2.02635 7.53466 2.04962 7.20326 2.09607C7.19753 2.05835 7.19181 2.02349 7.19181 1.98577C7.1919 1.52998 7.55475 1.16127 8.00043 1.16127ZM8.00043 16.8386C7.3119 16.8386 6.73478 16.3393 6.60047 15.6774H9.40034C9.26612 16.3393 8.689 16.8386 8.00043 16.8386ZM14.8545 13.558C14.8773 13.8077 14.8002 14.0487 14.6373 14.2316C14.4688 14.4145 14.2459 14.5161 14.0002 14.5161H2.00067C1.75496 14.5161 1.53214 14.4144 1.36639 14.2316C1.20069 14.0487 1.12354 13.8077 1.14639 13.558C1.18638 13.1196 1.58925 12.7742 2.06065 12.7742C2.81492 12.7742 3.42916 12.15 3.42916 11.3835V7.83869C3.42916 6.56707 3.92627 5.37968 4.82626 4.49709C5.68621 3.65227 6.8062 3.19353 8.00043 3.19353C8.05758 3.19353 8.11183 3.19353 8.16899 3.19644C10.5946 3.28351 12.5717 5.42321 12.5717 7.96353V11.3835C12.5717 12.15 13.1859 12.7742 13.9402 12.7742C14.4116 12.7742 14.8116 13.1196 14.8545 13.558Z"
      fill="#74767E"></path>
  </symbol>
  <symbol xmlns="http://www.w3.org/2000/svg"
    viewBox="0 0 18 20"
    id="chart">
    <rect x="8"
      y="5"
      width="2"
      height="15"
      rx="1"
      fill="currentColor"></rect>
    <rect x="4"
      y="9"
      width="2"
      height="11"
      rx="1"
      fill="currentColor"></rect>
    <rect y="13"
      width="2"
      height="7"
      rx="1"
      fill="currentColor"></rect>
    <rect x="12"
      y="8"
      width="2"
      height="12"
      rx="1"
      fill="currentColor"></rect>
    <rect x="16"
      width="2"
      height="20"
      rx="1"
      fill="currentColor"></rect>
  </symbol>
  <symbol xmlns="http://www.w3.org/2000/svg"
    viewBox="0 0 20 18"
    id="chat">
    <path d="M4.24286 12.0488L1.60738 14.0638C0.949352 14.5669 0 14.0977 0 13.2693V0.926829C0 0.681019 0.10034 0.445276 0.278946 0.271462C0.457552 0.0976478 0.699794 0 0.952381 0H15.2381C15.4907 0 15.7329 0.0976478 15.9115 0.271462C16.0901 0.445276 16.1905 0.681019 16.1905 0.926829V12.0488H4.24286ZM3.58381 10.1951H14.2857V1.85366H1.90476V11.4788L3.58381 10.1951ZM6.66667 13.9024H16.4162L18.0952 15.1861V5.56098H19.0476C19.3002 5.56098 19.5424 5.65862 19.7211 5.83244C19.8997 6.00625 20 6.24199 20 6.4878V16.9767C20 17.805 19.0506 18.2742 18.3926 17.7711L15.7571 15.7561H7.61905C7.36646 15.7561 7.12422 15.6585 6.94561 15.4846C6.76701 15.3108 6.66667 15.0751 6.66667 14.8293V13.9024Z"
      fill="currentColor"></path>
  </symbol>
  <symbol fill="none"
    xmlns="http://www.w3.org/2000/svg"
    viewBox="0 0 24 24"
    id="crown">
    <path d="M5 20H19M2 4L5 16H19L22 4L16 11L12 4L8 11L2 4Z"
      stroke="#5D5FEF"
      stroke-width="2"
      stroke-linecap="round"
      stroke-linejoin="round"></path>
  </symbol>
  <symbol fill="none"
    xmlns="http://www.w3.org/2000/svg"
    viewBox="0 0 19 20"
    id="exit">
    <path d="M16.15 0H10.4499C10.198 0 9.95631 0.105357 9.77815 0.292893C9.59999 0.48043 9.4999 0.734783 9.4999 1C9.4999 1.26522 9.59999 1.51957 9.77815 1.70711C9.95631 1.89464 10.198 2 10.4499 2H16.15C16.4019 2 16.6436 2.10536 16.8217 2.29289C16.9999 2.48043 17.1 2.73478 17.1 3V17C17.1 17.2652 16.9999 17.5196 16.8217 17.7071C16.6436 17.8946 16.4019 18 16.15 18H10.4499C10.198 18 9.95631 18.1054 9.77815 18.2929C9.59999 18.4804 9.4999 18.7348 9.4999 19C9.4999 19.2652 9.59999 19.5196 9.77815 19.7071C9.95631 19.8946 10.198 20 10.4499 20H16.15C16.9058 20 17.6308 19.6839 18.1652 19.1213C18.6997 18.5587 19 17.7956 19 17V3C19 2.20435 18.6997 1.44129 18.1652 0.87868C17.6308 0.316071 16.9058 0 16.15 0Z"
      fill="#2F2F2F"></path>
    <path d="M5.4215 13.293C5.51224 13.3852 5.58461 13.4956 5.6344 13.6176C5.68419 13.7396 5.7104 13.8708 5.7115 14.0036C5.71259 14.1364 5.68856 14.2681 5.64079 14.391C5.59302 14.5138 5.52248 14.6255 5.43328 14.7194C5.34408 14.8133 5.23801 14.8875 5.12126 14.9378C5.00451 14.9881 4.87941 15.0134 4.75327 15.0122C4.62712 15.0111 4.50246 14.9835 4.38656 14.9311C4.27065 14.8787 4.16583 14.8025 4.07819 14.707L0.27815 10.707C0.100051 10.5195 0 10.2652 0 10C0 9.73484 0.100051 9.48053 0.27815 9.293L4.07819 5.293C4.16583 5.19749 4.27065 5.12131 4.38656 5.0689C4.50246 5.01649 4.62712 4.9889 4.75327 4.98775C4.87941 4.9866 5.00451 5.0119 5.12126 5.06218C5.23801 5.11246 5.34408 5.18671 5.43328 5.2806C5.52248 5.3745 5.59302 5.48615 5.64079 5.60905C5.68856 5.73194 5.71259 5.86362 5.7115 5.9964C5.7104 6.12918 5.68419 6.2604 5.6344 6.3824C5.58461 6.50441 5.51224 6.61475 5.4215 6.707L3.24313 9H14.2499C14.5019 9 14.7435 9.10536 14.9217 9.29289C15.0999 9.48043 15.2 9.73478 15.2 10C15.2 10.2652 15.0999 10.5196 14.9217 10.7071C14.7435 10.8946 14.5019 11 14.2499 11H3.24313L5.4215 13.293Z"
      fill="#2F2F2F"></path>
  </symbol>
  <symbol fill="none"
    xmlns="http://www.w3.org/2000/svg"
    viewBox="0 0 7 14"
    id="fb">
    <path d="M5.1126 2.93661H6.8285V0.446777H4.81141V0.455757C2.36736 0.540786 1.86645 1.89031 1.8223 3.30771H1.81727V4.55101H0.153015V6.98931H1.81727V13.5253H4.3254V6.98931H6.37996L6.77685 4.55101H4.32622V3.79984C4.32622 3.32082 4.65072 2.93661 5.1126 2.93661Z"
      fill="#5D5FEF"></path>
  </symbol>
  <symbol xmlns="http://www.w3.org/2000/svg"
    viewBox="0 0 22 22"
    id="gear">
    <path d="M20.6536 13.1925L18.7658 11.755C18.7906 11.5333 18.8103 11.2742 18.8103 11C18.8103 10.7258 18.7898 10.4667 18.7658 10.245L20.6553 8.80668C21.0062 8.53668 21.1028 8.0575 20.8786 7.65836L18.9155 4.35086C18.7007 3.97004 18.219 3.79586 17.78 3.95336L15.5525 4.82418C15.1263 4.52418 14.6788 4.27086 14.2158 4.06836L13.8769 1.76754C13.8213 1.33 13.4311 1 12.9698 1H9.03341C8.57215 1 8.18193 1.33 8.12718 1.75918L7.78746 4.06836C7.33903 4.26586 6.89835 4.51504 6.45249 4.82504L4.219 3.95172C3.792 3.78922 3.3059 3.9609 3.09198 4.34254L1.12632 7.65504C0.894427 8.03672 0.989415 8.53172 1.34883 8.80836L3.23659 10.245C3.20662 10.5267 3.1921 10.7709 3.1921 11C3.1921 11.2292 3.20667 11.4734 3.2349 11.755L1.34542 13.1942C0.995391 13.4642 0.899521 13.9433 1.12287 14.3425L3.08596 17.65C3.29905 18.03 3.77996 18.2033 4.22153 18.0475L6.44904 17.1767C6.87521 17.4759 7.32363 17.7292 7.78658 17.9325L8.12545 20.2325C8.18109 20.67 8.57131 21 9.03253 21H12.9689C13.4302 21 13.8204 20.67 13.8752 20.2408L14.2149 17.9325C14.6633 17.735 15.104 17.4858 15.5499 17.1758L17.7834 18.0491C18.2087 18.21 18.6964 18.04 18.9104 17.6583L20.8837 14.3341C21.102 13.9442 21.0061 13.465 20.6536 13.1925ZM20.1358 13.9258L18.0974 17.2741L15.6475 16.3158C15.5088 16.2616 15.3514 16.2825 15.2316 16.3691C14.701 16.7558 14.1884 17.0466 13.663 17.2558C13.5226 17.3116 13.4225 17.4358 13.4011 17.5825L12.969 20.1667L8.97521 20.1225L8.60123 17.5833C8.57897 17.4366 8.47973 17.3125 8.33937 17.2566C7.79255 17.0383 7.26627 16.7408 6.7742 16.3725C6.69803 16.315 6.60561 16.2858 6.51319 16.2858C6.45927 16.2858 6.40536 16.295 6.35317 16.3158L3.83299 17.2416L1.8699 13.9341C1.85193 13.9016 1.85534 13.8641 1.87587 13.8483L3.95277 12.2675C4.07086 12.1775 4.13248 12.0325 4.11366 11.8875C4.06829 11.5383 4.04776 11.2558 4.04776 11C4.04776 10.7441 4.06914 10.4625 4.11366 10.1125C4.13248 9.96664 4.07086 9.82246 3.95277 9.73246L1.86568 8.075L3.90407 4.72668L6.35406 5.685C6.49353 5.74 6.65013 5.71918 6.77079 5.63168C7.30048 5.24418 7.81393 4.95418 8.33937 4.745C8.47973 4.68832 8.57897 4.56418 8.60039 4.41832L9.03341 1.83332L13.028 1.87832L13.4011 4.41832C13.4234 4.565 13.5226 4.68914 13.663 4.745C14.209 4.9625 14.7352 5.26 15.2282 5.62918C15.3488 5.71918 15.5071 5.74086 15.6483 5.685L18.1685 4.75918L20.1316 8.06668C20.1496 8.09918 20.1462 8.13586 20.1256 8.15168L18.0487 9.7325C17.9306 9.8225 17.869 9.96668 17.8878 10.1125C17.9204 10.3658 17.9538 10.67 17.9538 11C17.9538 11.3308 17.9204 11.6342 17.8878 11.8875C17.869 12.0325 17.9306 12.1775 18.0487 12.2675L20.1231 13.8475C20.1453 13.865 20.1495 13.9025 20.1358 13.9258Z"
      fill="currentColor"></path>
    <path d="M11.0008 6.83332C8.64147 6.83332 6.72201 8.7025 6.72201 11C6.72201 13.2975 8.64147 15.1667 11.0008 15.1667C13.36 15.1667 15.2795 13.2975 15.2795 11C15.2795 8.7025 13.36 6.83332 11.0008 6.83332ZM11.0008 14.3333C9.113 14.3333 7.57779 12.8383 7.57779 11C7.57779 9.16168 9.113 7.66668 11.0008 7.66668C12.8885 7.66668 14.4237 9.16168 14.4237 11C14.4237 12.8383 12.8885 14.3333 11.0008 14.3333Z"
      fill="currentColor"></path>
    <path d="M20.6536 13.1925L18.7658 11.755C18.7906 11.5333 18.8103 11.2742 18.8103 11C18.8103 10.7258 18.7898 10.4667 18.7658 10.245L20.6553 8.80668C21.0062 8.53668 21.1028 8.0575 20.8786 7.65836L18.9155 4.35086C18.7007 3.97004 18.219 3.79586 17.78 3.95336L15.5525 4.82418C15.1263 4.52418 14.6788 4.27086 14.2158 4.06836L13.8769 1.76754C13.8213 1.33 13.4311 1 12.9698 1H9.03341C8.57215 1 8.18193 1.33 8.12718 1.75918L7.78746 4.06836C7.33903 4.26586 6.89835 4.51504 6.45249 4.82504L4.219 3.95172C3.792 3.78922 3.3059 3.9609 3.09198 4.34254L1.12632 7.65504C0.894427 8.03672 0.989415 8.53172 1.34883 8.80836L3.23659 10.245C3.20662 10.5267 3.1921 10.7709 3.1921 11C3.1921 11.2292 3.20667 11.4734 3.2349 11.755L1.34542 13.1942C0.995391 13.4642 0.899521 13.9433 1.12287 14.3425L3.08596 17.65C3.29905 18.03 3.77996 18.2033 4.22153 18.0475L6.44904 17.1767C6.87521 17.4759 7.32363 17.7292 7.78658 17.9325L8.12545 20.2325C8.18109 20.67 8.57131 21 9.03253 21H12.9689C13.4302 21 13.8204 20.67 13.8752 20.2408L14.2149 17.9325C14.6633 17.735 15.104 17.4858 15.5499 17.1758L17.7834 18.0491C18.2087 18.21 18.6964 18.04 18.9104 17.6583L20.8837 14.3341C21.102 13.9442 21.0061 13.465 20.6536 13.1925ZM20.1358 13.9258L18.0974 17.2741L15.6475 16.3158C15.5088 16.2616 15.3514 16.2825 15.2316 16.3691C14.701 16.7558 14.1884 17.0466 13.663 17.2558C13.5226 17.3116 13.4225 17.4358 13.4011 17.5825L12.969 20.1667L8.97521 20.1225L8.60123 17.5833C8.57897 17.4366 8.47973 17.3125 8.33937 17.2566C7.79255 17.0383 7.26627 16.7408 6.7742 16.3725C6.69803 16.315 6.60561 16.2858 6.51319 16.2858C6.45927 16.2858 6.40536 16.295 6.35317 16.3158L3.83299 17.2416L1.8699 13.9341C1.85193 13.9016 1.85534 13.8641 1.87587 13.8483L3.95277 12.2675C4.07086 12.1775 4.13248 12.0325 4.11366 11.8875C4.06829 11.5383 4.04776 11.2558 4.04776 11C4.04776 10.7441 4.06914 10.4625 4.11366 10.1125C4.13248 9.96664 4.07086 9.82246 3.95277 9.73246L1.86568 8.075L3.90407 4.72668L6.35406 5.685C6.49353 5.74 6.65013 5.71918 6.77079 5.63168C7.30048 5.24418 7.81393 4.95418 8.33937 4.745C8.47973 4.68832 8.57897 4.56418 8.60039 4.41832L9.03341 1.83332L13.028 1.87832L13.4011 4.41832C13.4234 4.565 13.5226 4.68914 13.663 4.745C14.209 4.9625 14.7352 5.26 15.2282 5.62918C15.3488 5.71918 15.5071 5.74086 15.6483 5.685L18.1685 4.75918L20.1316 8.06668C20.1496 8.09918 20.1462 8.13586 20.1256 8.15168L18.0487 9.7325C17.9306 9.8225 17.869 9.96668 17.8878 10.1125C17.9204 10.3658 17.9538 10.67 17.9538 11C17.9538 11.3308 17.9204 11.6342 17.8878 11.8875C17.869 12.0325 17.9306 12.1775 18.0487 12.2675L20.1231 13.8475C20.1453 13.865 20.1495 13.9025 20.1358 13.9258Z"
      stroke="currentColor"></path>
    <path d="M11.0008 6.83332C8.64147 6.83332 6.72201 8.7025 6.72201 11C6.72201 13.2975 8.64147 15.1667 11.0008 15.1667C13.36 15.1667 15.2795 13.2975 15.2795 11C15.2795 8.7025 13.36 6.83332 11.0008 6.83332ZM11.0008 14.3333C9.113 14.3333 7.57779 12.8383 7.57779 11C7.57779 9.16168 9.113 7.66668 11.0008 7.66668C12.8885 7.66668 14.4237 9.16168 14.4237 11C14.4237 12.8383 12.8885 14.3333 11.0008 14.3333Z"
      stroke="currentColor"></path>
  </symbol>
  <symbol fill="none"
    xmlns="http://www.w3.org/2000/svg"
    viewBox="0 0 20 17"
    id="heart">
    <path d="M5.54426 12.7588L5.54427 12.7588C7.47413 14.3947 9.38575 15.5718 9.99929 15.9357C10.6099 15.571 12.5079 14.3942 14.4298 12.7593C15.7859 11.6057 16.8443 10.4838 17.594 9.42965L18.4089 10.0092L17.594 9.42964C18.5649 8.06448 18.9931 6.84549 18.9999 5.7939C19.0085 4.44956 18.4793 3.16156 17.5683 2.26054L17.5683 2.26053C16.7388 1.44018 15.6732 1 14.5661 1C13.0722 1 11.674 1.82307 10.8562 3.17833L10 4.59741L9.1438 3.17833C8.32609 1.82305 6.92787 1 5.43399 1C4.26316 1 3.15699 1.48587 2.31328 2.39686C1.48108 3.29546 1.00847 4.49994 1.00008 5.79944L5.54426 12.7588ZM5.54426 12.7588C4.18313 11.6051 3.12416 10.4835 2.37781 9.43023L2.3778 9.43022M5.54426 12.7588L2.3778 9.43022M2.3778 9.43022C1.4106 8.06533 0.993367 6.84853 1.00008 5.79948L2.3778 9.43022ZM10.2007 16.0532L10.2003 16.053L10.2007 16.0532Z"
      stroke="currentColor"
      stroke-width="2"></path>
  </symbol>
  <symbol fill="none"
    xmlns="http://www.w3.org/2000/svg"
    viewBox="0 0 15 15"
    id="insta">
    <path fill-rule="evenodd"
      clip-rule="evenodd"
      d="M4.90509 0.6828C2.54568 0.6828 0.632996 2.59548 0.632996 4.9549V10.295C0.632996 12.6544 2.54568 14.5671 4.90509 14.5671H10.2452C12.6046 14.5671 14.5173 12.6544 14.5173 10.295V4.9549C14.5173 2.59548 12.6046 0.6828 10.2452 0.6828H4.90509ZM7.57515 3.88687C5.51067 3.88687 3.83707 5.56047 3.83707 7.62496C3.83707 9.68944 5.51067 11.363 7.57515 11.363C9.63964 11.363 11.3132 9.68944 11.3132 7.62496C11.3132 5.56047 9.63964 3.88687 7.57515 3.88687ZM11.5421 4.64975C12.0898 4.64975 12.5338 4.20573 12.5338 3.65801C12.5338 3.11029 12.0898 2.66627 11.5421 2.66627C10.9944 2.66627 10.5504 3.11029 10.5504 3.65801C10.5504 4.20573 10.9944 4.64975 11.5421 4.64975Z"
      fill="#5D5FEF"></path>
  </symbol>
  <symbol fill="none"
    xmlns="http://www.w3.org/2000/svg"
    viewBox="0 0 21 21"
    id="squares">
    <rect x="1"
      y="1"
      width="7.54545"
      height="7.54545"
      rx="1"
      stroke="currentColor"
      stroke-width="2"></rect>
    <rect x="1"
      y="12.4547"
      width="7.54545"
      height="7.54545"
      rx="1"
      stroke="currentColor"
      stroke-width="2"></rect>
    <rect x="12.4547"
      y="1"
      width="7.54545"
      height="7.54545"
      rx="1"
      stroke="currentColor"
      stroke-width="2"></rect>
    <rect x="12.4547"
      y="12.4547"
      width="7.54545"
      height="7.54545"
      rx="1"
      stroke="currentColor"
      stroke-width="2"></rect>
  </symbol>
  <symbol fill="none"
    xmlns="http://www.w3.org/2000/svg"
    viewBox="0 0 22 21"
    id="star">
    <path d="M10.8029 1.12875C10.8264 1.07411 10.8551 1.04777 10.8806 1.03187C10.9106 1.0132 10.952 1 11 1C11.048 1 11.0894 1.0132 11.1194 1.03187C11.1449 1.04777 11.1736 1.07411 11.1972 1.12875L13.4083 6.25292C13.7294 6.99692 14.4314 7.50522 15.2375 7.57983L20.804 8.09506C20.9941 8.11266 21.064 8.34378 20.9262 8.46454L16.7263 12.1467C16.1171 12.6808 15.8483 13.5051 16.0269 14.2958L17.256 19.7384C17.2691 19.7963 17.2614 19.8339 17.2504 19.861C17.2375 19.893 17.2121 19.9275 17.1736 19.9554C17.1351 19.9834 17.0939 19.9971 17.0583 19.9996C17.0279 20.0017 16.9886 19.9971 16.9367 19.9663L12.1298 17.1178C11.4333 16.7051 10.5667 16.7051 9.87021 17.1178L5.06334 19.9663C5.01139 19.9971 4.97206 20.0017 4.94167 19.9996C4.9061 19.9971 4.86488 19.9834 4.82638 19.9554C4.78787 19.9275 4.76255 19.893 4.74957 19.861C4.73858 19.8339 4.73088 19.7963 4.74395 19.7384L5.97309 14.2958C6.15167 13.5051 5.88289 12.6808 5.27371 12.1467L1.07376 8.46454C0.936011 8.34378 1.00592 8.11266 1.19599 8.09506L6.76252 7.57983C7.56859 7.50522 8.27063 6.99692 8.59169 6.25292L10.8029 1.12875Z"
      stroke="currentColor"
      stroke-width="2"></path>
  </symbol>
  <symbol fill="none"
    xmlns="http://www.w3.org/2000/svg"
    viewBox="0 0 15 14"
    id="teleg">
    <path d="M0.911243 6.87875L4.18677 8.10128L5.45459 12.1786C5.53572 12.4397 5.85504 12.5363 6.067 12.363L7.89283 10.8745C8.08421 10.7186 8.35682 10.7108 8.55683 10.856L11.85 13.2469C12.0767 13.4117 12.3979 13.2875 12.4548 13.0135L14.8672 1.40935C14.9293 1.11007 14.6352 0.860402 14.3502 0.970619L0.907405 6.15646C0.575664 6.2844 0.578554 6.75408 0.911243 6.87875ZM5.25027 7.4505L11.6519 3.50775C11.7669 3.43709 11.8853 3.59266 11.7865 3.6843L6.50332 8.59526C6.31761 8.76813 6.19783 8.99946 6.1639 9.25055L5.98393 10.5842C5.9601 10.7623 5.70995 10.78 5.66081 10.6077L4.96866 8.17563C4.88939 7.89823 5.00491 7.60194 5.25027 7.4505Z"
      fill="#5D5FEF"></path>
  </symbol>
  <symbol fill="none"
    xmlns="http://www.w3.org/2000/svg"
    viewBox="0 0 16 18"
    id="user">
    <path fill-rule="evenodd"
      clip-rule="evenodd"
      d="M8 2C6.34315 2 5 3.34315 5 5C5 6.65685 6.34315 8 8 8C9.65685 8 11 6.65685 11 5C11 3.34315 9.65685 2 8 2ZM3 5C3 2.23858 5.23858 0 8 0C10.7614 0 13 2.23858 13 5C13 7.76142 10.7614 10 8 10C5.23858 10 3 7.76142 3 5Z"
      fill="currentColor"></path>
    <path fill-rule="evenodd"
      clip-rule="evenodd"
      d="M2.29768 10.6846C3.78447 8.98545 5.8319 8 8 8C10.1681 8 12.2155 8.98545 13.7023 10.6846C15.1854 12.3796 16 14.653 16 17C16 17.5523 15.5523 18 15 18C14.4477 18 14 17.5523 14 17C14 15.1036 13.3396 13.3073 12.1972 12.0016C11.0585 10.7003 9.54493 10 8 10C6.45507 10 4.94154 10.7003 3.80283 12.0016C2.66039 13.3073 2 15.1036 2 17C2 17.5523 1.55228 18 1 18C0.447715 18 0 17.5523 0 17C0 14.653 0.81461 12.3796 2.29768 10.6846Z"
      fill="currentColor"></path>
  </symbol>
  <symbol fill="none"
    xmlns="http://www.w3.org/2000/svg"
    viewBox="0 0 16 9"
    id="vk">
    <path d="M12.9479 4.91454C12.7006 4.61918 12.7714 4.48778 12.9479 4.22376C12.9511 4.22075 14.9925 1.55289 15.2028 0.648132L15.2041 0.647529C15.3086 0.317814 15.2041 0.0755005 14.6987 0.0755005H13.0263C12.6006 0.0755005 12.4043 0.283456 12.2991 0.516125C12.2991 0.516125 11.4477 2.44378 10.2431 3.69332C9.85435 4.05438 9.67462 4.17012 9.46239 4.17012C9.35787 4.17012 9.19535 4.05438 9.19535 3.72467V0.647529C9.19535 0.252112 9.07617 0.0755005 8.72373 0.0755005H6.09412C5.82709 0.0755005 5.66839 0.259948 5.66839 0.431737C5.66839 0.80666 6.27066 0.892856 6.33312 1.9477V4.23642C6.33312 4.73793 6.23689 4.83015 6.02338 4.83015C5.45489 4.83015 4.07508 2.89465 3.25739 0.679476C3.09232 0.249701 2.93108 0.0761032 2.50216 0.0761032H0.829178C0.351821 0.0761032 0.255585 0.284059 0.255585 0.516728C0.255585 0.927817 0.824079 2.97181 2.89921 5.67222C4.28221 7.51549 6.22988 8.51428 8.00164 8.51428C9.06661 8.51428 9.19663 8.29246 9.19663 7.91091C9.19663 6.14961 9.10039 5.98325 9.63383 5.98325C9.88111 5.98325 10.3068 6.09898 11.3011 6.98806C12.4374 8.04231 12.6242 8.51428 13.2602 8.51428H14.9326C15.4093 8.51428 15.6508 8.29246 15.5119 7.85485C15.1939 6.93442 13.0448 5.04112 12.9479 4.91454Z"
      fill="#5D5FEF"></path>
  </symbol>
</svg>